<?xml version="1.0"?>
<svg width="50" height="50" xmlns="http://www.w3.org/2000/svg" xmlns:svg="http://www.w3.org/2000/svg" enable-background="new 0 0 50 50" version="1.1" xml:space="preserve">
 <g class="layer">
  <title>Layer 1</title>
  <g id="svg_1">
   <g id="_x32__2_">
    <g id="svg_2">
     <path d="m25,1c-12.7,0 -23,10.53 -23,23.5s10.3,23.5 23,23.5s23,-10.53 23,-23.5s-10.3,-23.5 -23,-23.5zm0,44.09c-11.13,0 -20.15,-9.21 -20.15,-20.59s9.02,-20.59 20.15,-20.59s20.15,9.21 20.15,20.59s-9.02,20.59 -20.15,20.59zm1.29,-27.26c-0.37,-0.38 -0.83,-0.47 -1.29,-0.38c-0.46,-0.09 -0.92,0 -1.29,0.38l-11.04,11.28c-0.55,0.56 -0.55,1.5 0,2.07s1.47,0.56 2.02,0l10.3,-10.43l10.21,10.43c0.55,0.56 1.47,0.56 2.02,0c0.55,-0.56 0.55,-1.5 0,-2.07l-10.95,-11.28z" fill="#000000" id="svg_3"/>
    </g>
   </g>
  </g>
 </g>
</svg>